<?xml version="1.0" encoding="utf-8"?>
<!-- Generator: Adobe Illustrator 17.0.0, SVG Export Plug-In . SVG Version: 6.00 Build 0)  -->
<!DOCTYPE svg PUBLIC "-//W3C//DTD SVG 1.1//EN" "http://www.w3.org/Graphics/SVG/1.1/DTD/svg11.dtd">
<svg version="1.1" id="Layer_1" xmlns="http://www.w3.org/2000/svg" xmlns:xlink="http://www.w3.org/1999/xlink" x="0px" y="0px"
	 width="397px" height="111px" viewBox="0 0 397 111" enable-background="new 0 0 397 111" xml:space="preserve">
<g>
	<path fill="#FFFFFF" d="M396.936,41.622c0,23.109-18.732,41.843-41.844,41.843c-23.107,0-41.842-18.734-41.842-41.843
		c0-23.108,18.734-41.843,41.842-41.843C378.204-0.221,396.936,18.514,396.936,41.622"/>
	<path fill="#454545" d="M362.559,43.764c2.786,0,6.468-1.034,10.369-4.985c4.446-4.504,4.219-8.4,3.686-10.323
		c-0.693-2.518-2.665-4.471-5.142-5.095c-1.539-0.388-3.01-0.288-4.278,0.006c0.116-2.384-0.033-3.763-0.033-3.763h-12.754h-12.543
		c0,0-0.148,1.378-0.031,3.763c-1.271-0.293-2.739-0.394-4.28-0.006c-2.475,0.624-4.446,2.577-5.143,5.095
		c-0.531,1.922-0.755,5.818,3.689,10.323c3.901,3.951,7.583,4.985,10.367,4.985c0.826,0,1.569-0.092,2.221-0.226
		c2.103,2.335,3.918,3.89,3.918,7.961c0,7.119-4.253,7.772-4.253,7.772h-4.756v3.487h10.811h10.812v-3.487h-4.547
		c0,0-4.251-0.654-4.251-7.772c0-4.071,1.815-5.625,3.922-7.961C360.99,43.672,361.733,43.764,362.559,43.764z M364.925,35.587
		c1.01-3.2,1.59-6.076,1.916-8.479c1.024-0.4,2.398-0.714,3.793-0.362c1.271,0.32,2.288,1.335,2.648,2.646
		c0.568,2.059-0.43,4.518-2.807,6.929c-2.949,2.987-5.635,3.845-7.632,3.934C363.601,39.016,364.318,37.514,364.925,35.587z
		 M338.551,36.32c-2.38-2.411-3.376-4.87-2.81-6.929c0.362-1.311,1.378-2.326,2.65-2.646c1.393-0.351,2.767-0.038,3.791,0.362
		c0.328,2.403,0.906,5.28,1.916,8.479c0.607,1.926,1.324,3.428,2.083,4.667C344.183,40.167,341.5,39.307,338.551,36.32z
		 M354.407,34.714l-4.349,2.303l0.831-4.88l-3.518-3.456l4.858-0.713l2.177-4.441l2.173,4.441l4.864,0.713l-3.52,3.456l0.83,4.88
		L354.407,34.714z"/>
	<path fill="#FFFFFF" d="M83.236,41.622c0,23.109-18.732,41.843-41.842,41.843c-23.109,0-41.842-18.734-41.842-41.843
		c0-23.108,18.732-41.843,41.842-41.843C64.503-0.221,83.236,18.514,83.236,41.622"/>
	<g>
		<polygon fill="#454545" points="43.017,52.001 40.247,42.959 37.16,49.655 34.585,41.749 33.706,45.758 26.625,45.758 
			26.625,44.652 32.112,44.652 34.585,36.387 37.16,46.119 40.247,38.061 43.017,46.892 43.496,44.652 51.118,44.652 51.118,45.758 
			45.32,45.758 		"/>
		<g>
			<path fill="#454545" d="M60.141,57.848c0,0.608-0.498,1.106-1.107,1.106H20.438c-0.607,0-1.106-0.499-1.106-1.106V30.542
				c0-0.609,0.498-1.106,1.106-1.106h23.117c0.607,0,1.105,0.497,1.105,1.106v1.107c0,0.608-0.498,1.105-1.105,1.105H23.758
				c-0.609,0-1.107,0.498-1.107,1.107v20.67c0,0.608,0.498,1.106,1.107,1.106h31.959c0.607,0,1.105-0.499,1.105-1.106v-7.623
				c0-0.607,0.498-1.106,1.105-1.106h1.107c0.608,0,1.106,0.499,1.106,1.106V57.848L60.141,57.848z"/>
		</g>
		<g>
			<path fill="#454545" d="M65.246,29.341c0.44-0.417,0.435-1.093-0.018-1.501l-5.826-5.256c-0.45-0.409-0.835-0.728-0.855-0.709
				c-0.02,0.017-0.056,0.009-0.086-0.018c-0.025-0.027-0.426,0.276-0.888,0.671l-6.165,5.297c-0.462,0.396-0.486,1.073-0.058,1.502
				l0.782,0.782c0.431,0.431,1.134,0.431,1.564,0l2.342-2.341c0.431-0.431,0.781-0.284,0.781,0.324v10.964
				c0,0.608,0.498,1.106,1.105,1.106h1.107c0.607,0,1.107-0.497,1.107-1.106V28.093c0-0.608,0.334-0.736,0.74-0.285l2.013,2.23
				c0.406,0.452,1.104,0.479,1.547,0.063L65.246,29.341z"/>
		</g>
	</g>
	<path fill="#FFFFFF" d="M292.183,42.182c0,23.109-18.732,41.843-41.842,41.843s-41.844-18.734-41.844-41.843
		c0-23.108,18.734-41.843,41.844-41.843S292.183,19.074,292.183,42.182"/>
	<path fill="#454545" d="M249.67,30.796c1.229-1.763,2.633-3.111,4.209-4.039c1.575-0.916,3.135-1.405,4.676-1.456
		c1.536-0.051,3.055,0.21,4.556,0.791c1.502,0.574,2.815,1.394,3.942,2.457c1.125,1.064,2.036,2.355,2.73,3.868
		c0.693,1.513,1.041,3.088,1.041,4.727c0,1.461-0.433,2.969-1.291,4.521c-0.859,1.553-2.065,3.146-3.612,4.784
		c-1.554,1.644-3.174,3.276-4.868,4.908c-1.69,1.627-3.613,3.578-5.768,5.859c-2.15,2.287-4.021,4.516-5.614,6.695
		c-1.592-2.179-3.452-4.408-5.597-6.695c-2.139-2.281-4.057-4.232-5.745-5.859c-1.695-1.632-3.316-3.265-4.869-4.908
		c-1.548-1.639-2.754-3.231-3.612-4.784c-0.859-1.553-1.291-3.06-1.291-4.521c0-1.639,0.358-3.214,1.074-4.727
		c0.723-1.513,1.656-2.804,2.811-3.868c1.153-1.063,2.491-1.883,4.015-2.457c1.53-0.581,3.055-0.842,4.579-0.791
		s3.065,0.545,4.618,1.479C247.201,27.719,248.543,29.056,249.67,30.796"/>
	<path fill="#FFFFFF" d="M187.615,41.622c0,23.109-18.732,41.843-41.842,41.843c-23.109,0-41.844-18.734-41.844-41.843
		c0-23.108,18.734-41.843,41.844-41.843C168.882-0.221,187.615,18.514,187.615,41.622"/>
	<g id="Your_Icon_1_">
		<path fill="#454545" d="M167.963,38.083c0-0.143,0.03-0.305,0.01-0.441c-0.225-11.697-10.501-19.961-22.312-19.961
			c-11.799,0-22.115,8.265-22.34,19.961c-0.02,0.137-0.004,0.298-0.004,0.441c0,1.178,0.709,2.166,1.729,2.571l-0.026,2.919
			c-0.998,0.188-1.758,1.06-1.76,2.113l-0.081,7.535c-0.005,1.193,0.96,2.161,2.152,2.166l1.229,0.029
			c1.193,0.003,2.162-0.96,2.167-2.152l0.011-1.025l1.235,0.013l-0.026,4.685c-0.003,1.192,0.961,2.161,2.154,2.165l1.226,0.029
			c1.194,0.003,2.163-0.961,2.169-2.152l0.08-14.967c0.004-1.192-0.96-2.163-2.153-2.166c0,0-0.551-0.005-0.551-0.008l-0.126-0.024
			c0,0.003-0.552,0.004-0.552,0.004c-1.191-0.004-2.161,0.961-2.165,2.154l-0.026,4.732l-1.204-0.012l0.011-0.964
			c0.003-1.093-0.811-1.991-1.865-2.135l0.026-2.867c1.119-0.328,1.946-1.267,1.9-2.5c-0.01-0.237-0.01-0.237-0.013-0.29
			c0.085-8.775,8.311-14.798,16.803-14.713c8.625-0.085,16.691,5.938,16.776,14.713c-0.003,0.053-0.029,0.053-0.037,0.29
			c-0.045,1.182,0.714,2.092,1.766,2.456l0.025,2.911c-1.055,0.145-1.868,1.043-1.865,2.136l0.011,0.964l-1.205,0.013l-0.025-4.733
			c-0.004-1.192-0.974-2.156-2.164-2.153c0,0-0.553-0.002-0.553-0.003l-0.127,0.024c0,0.003-0.551,0.007-0.551,0.007
			c-1.192,0.004-2.156,0.975-2.153,2.166l0.081,14.969c0.005,1.191,0.975,2.155,2.167,2.152l1.229-0.029
			c1.193-0.004,2.156-0.973,2.153-2.166l-0.025-4.684l1.233-0.013l0.012,1.024c0.005,1.192,0.974,2.155,2.167,2.152l1.227-0.028
			c1.194-0.004,2.157-0.973,2.154-2.166l-0.081-7.535c-0.004-1.053-0.763-1.926-1.76-2.113l-0.025-2.877
			C167.184,40.328,167.963,39.312,167.963,38.083z"/>
	</g>
	<rect x="82.591" y="41.212" fill="#FFFFFF" width="22.375" height="1.94"/>
	<rect x="186.904" y="41.455" fill="#FFFFFF" width="22.25" height="1.94"/>
	<rect x="291.074" y="41.242" fill="#FFFFFF" width="22.25" height="1.94"/>
	<text transform="matrix(1 0 0 1 21.3917 107.6978)" fill="#FFFFFF" font-family="'Lato-Light'" font-size="14">Upload</text>
	<text transform="matrix(1 0 0 1 239.1134 107.6978)" fill="#FFFFFF" font-family="'Lato-Light'" font-size="14">Like</text>
	<text transform="matrix(1 0 0 1 129.2135 107.6978)" fill="#FFFFFF" font-family="'Lato-Light'" font-size="14">Listen</text>
	<text transform="matrix(1 0 0 1 341.7447 107.6978)" fill="#FFFFFF" font-family="'Lato-Light'" font-size="14">Lead</text>
</g>
</svg>
