<?xml version="1.0" encoding="utf-8"?>
<!-- Generator: Adobe Illustrator 16.0.0, SVG Export Plug-In . SVG Version: 6.00 Build 0)  -->
<!DOCTYPE svg PUBLIC "-//W3C//DTD SVG 1.1//EN" "http://www.w3.org/Graphics/SVG/1.1/DTD/svg11.dtd">
<svg version="1.1" id="Layer_1" xmlns="http://www.w3.org/2000/svg" xmlns:xlink="http://www.w3.org/1999/xlink" x="0px" y="0px"
	 width="32px" height="32px" viewBox="0 0 32 32" enable-background="new 0 0 32 32" xml:space="preserve">
<g>
	<path fill="#517CBE" d="M15.968,31.969c8.821,0,15.97-7.148,15.97-15.968c0-8.818-7.149-15.969-15.97-15.969
		C7.149,0.031,0,7.182,0,16C0,24.82,7.149,31.969,15.968,31.969"/>
	<path fill="#FFFFFF" d="M12.117,13.298h1.65v-1.605c0-0.708,0.017-1.798,0.531-2.475c0.542-0.715,1.286-1.202,2.563-1.202
		c2.083,0,2.96,0.298,2.96,0.298l-0.414,2.446c0,0-0.688-0.2-1.329-0.2c-0.643,0-1.217,0.231-1.217,0.874v1.865h2.632l-0.184,2.389
		h-2.449v8.298h-3.094v-8.298h-1.65V13.298z"/>
</g>
</svg>
