<?xml version="1.0" encoding="utf-8"?>
<!-- Generator: Adobe Illustrator 16.0.0, SVG Export Plug-In . SVG Version: 6.00 Build 0)  -->
<!DOCTYPE svg PUBLIC "-//W3C//DTD SVG 1.1//EN" "http://www.w3.org/Graphics/SVG/1.1/DTD/svg11.dtd">
<svg version="1.1" id="Layer_1" xmlns="http://www.w3.org/2000/svg" xmlns:xlink="http://www.w3.org/1999/xlink" x="0px" y="0px"
	 width="24px" height="24px" viewBox="0 0 24 24" enable-background="new 0 0 24 24" xml:space="preserve">
<path fill="#ED1F24" d="M12.028,4.271c0.69-0.995,1.481-1.75,2.367-2.271c0.886-0.518,1.762-0.793,2.63-0.819
	c0.864-0.032,1.718,0.118,2.563,0.441c0.844,0.323,1.583,0.784,2.217,1.382c0.633,0.602,1.145,1.324,1.534,2.175
	c0.392,0.851,0.586,1.737,0.586,2.662c0,0.819-0.243,1.67-0.726,2.543c-0.483,0.87-1.161,1.766-2.031,2.69
	c-0.874,0.922-1.785,1.843-2.738,2.758c-0.95,0.918-2.031,2.015-3.244,3.298c-1.209,1.286-2.261,2.536-3.157,3.765
	c-0.896-1.229-1.942-2.479-3.148-3.765c-1.203-1.283-2.281-2.38-3.23-3.298c-0.953-0.915-1.865-1.836-2.738-2.758
	c-0.87-0.924-1.548-1.82-2.031-2.69C0.397,9.51,0.153,8.659,0.153,7.84c0-0.924,0.202-1.811,0.604-2.662
	c0.407-0.851,0.932-1.573,1.581-2.175c0.649-0.599,1.401-1.059,2.258-1.382c0.861-0.323,1.718-0.473,2.575-0.441
	C8.029,1.206,8.896,1.484,9.77,2.012C10.639,2.537,11.394,3.292,12.028,4.271"/>
</svg>
