<?xml version="1.0" encoding="utf-8"?>
<!-- Generator: Adobe Illustrator 16.0.0, SVG Export Plug-In . SVG Version: 6.00 Build 0)  -->
<!DOCTYPE svg PUBLIC "-//W3C//DTD SVG 1.1//EN" "http://www.w3.org/Graphics/SVG/1.1/DTD/svg11.dtd">
<svg version="1.1" id="Layer_1" xmlns="http://www.w3.org/2000/svg" xmlns:xlink="http://www.w3.org/1999/xlink" x="0px" y="0px"
	 width="24px" height="48px" viewBox="0 0 24 48" enable-background="new 0 0 24 48" xml:space="preserve">
<path fill="#C6C6C5" d="M11.986,4.209c0.699-1,1.49-1.758,2.376-2.282c0.894-0.518,1.773-0.798,2.644-0.82
	c0.864-0.032,1.716,0.116,2.571,0.442c0.848,0.324,1.585,0.784,2.222,1.384c0.635,0.604,1.15,1.33,1.541,2.186
	c0.387,0.853,0.588,1.741,0.588,2.67c0,0.821-0.242,1.673-0.731,2.553c-0.482,0.871-1.163,1.769-2.038,2.696
	c-0.875,0.925-1.79,1.849-2.746,2.768c-0.953,0.921-2.037,2.021-3.257,3.311c-1.212,1.29-2.267,2.548-3.169,3.778
	c-0.896-1.23-1.948-2.488-3.157-3.778c-1.203-1.29-2.287-2.39-3.242-3.311c-0.956-0.919-1.871-1.843-2.746-2.768
	c-0.875-0.927-1.556-1.826-2.038-2.696C0.316,9.463,0.072,8.611,0.072,7.79c0-0.929,0.203-1.817,0.608-2.67
	c0.405-0.856,0.934-1.583,1.583-2.186C2.918,2.333,3.67,1.874,4.531,1.55c0.862-0.326,1.724-0.474,2.585-0.442
	C7.978,1.13,8.843,1.41,9.723,1.941C10.598,2.469,11.355,3.223,11.986,4.209"/>
<path fill="#ED1C24" d="M11.986,28.209c0.699-1,1.49-1.758,2.376-2.281c0.894-0.518,1.773-0.798,2.644-0.82
	c0.864-0.031,1.716,0.116,2.571,0.442c0.848,0.324,1.585,0.784,2.222,1.384c0.635,0.604,1.15,1.33,1.541,2.187
	c0.387,0.853,0.588,1.741,0.588,2.67c0,0.821-0.242,1.673-0.731,2.553c-0.482,0.87-1.163,1.769-2.038,2.696
	c-0.875,0.925-1.79,1.849-2.746,2.768c-0.953,0.921-2.037,2.021-3.257,3.311c-1.212,1.29-2.267,2.548-3.169,3.778
	c-0.896-1.23-1.948-2.488-3.157-3.778c-1.203-1.29-2.287-2.39-3.242-3.311c-0.956-0.919-1.871-1.843-2.746-2.768
	c-0.875-0.928-1.556-1.826-2.038-2.696c-0.487-0.88-0.731-1.731-0.731-2.553c0-0.929,0.203-1.817,0.608-2.67
	c0.405-0.856,0.934-1.583,1.583-2.187c0.654-0.6,1.406-1.06,2.267-1.384c0.862-0.326,1.724-0.474,2.585-0.442
	c0.862,0.022,1.727,0.303,2.606,0.834C10.598,26.469,11.355,27.223,11.986,28.209"/>
</svg>
