<?xml version="1.0" encoding="utf-8"?>
<!-- Generator: Adobe Illustrator 16.0.0, SVG Export Plug-In . SVG Version: 6.00 Build 0)  -->
<!DOCTYPE svg PUBLIC "-//W3C//DTD SVG 1.1//EN" "http://www.w3.org/Graphics/SVG/1.1/DTD/svg11.dtd">
<svg version="1.1" id="Layer_1" xmlns="http://www.w3.org/2000/svg" xmlns:xlink="http://www.w3.org/1999/xlink" x="0px" y="0px"
	 width="16px" height="32px" viewBox="0 0 16 32" enable-background="new 0 0 16 32" xml:space="preserve">
<path fill="#ED1C24" d="M7.981,18.871c0.453-0.65,0.966-1.142,1.542-1.481c0.58-0.337,1.151-0.519,1.716-0.532
	c0.562-0.021,1.114,0.075,1.669,0.287c0.551,0.21,1.029,0.508,1.442,0.898c0.412,0.392,0.747,0.863,1.001,1.418
	c0.251,0.555,0.381,1.131,0.381,1.734c0,0.532-0.157,1.086-0.475,1.656c-0.313,0.564-0.755,1.148-1.323,1.75
	c-0.567,0.601-1.162,1.2-1.782,1.797c-0.618,0.598-1.322,1.312-2.114,2.148C9.252,29.385,8.566,30.201,7.981,31
	c-0.583-0.799-1.265-1.615-2.05-2.453c-0.781-0.837-1.484-1.551-2.104-2.148c-0.62-0.597-1.214-1.196-1.783-1.797
	C1.477,24,1.035,23.416,0.722,22.852c-0.316-0.57-0.475-1.124-0.475-1.656c0-0.604,0.132-1.18,0.395-1.734s0.606-1.026,1.028-1.418
	c0.424-0.391,0.913-0.688,1.472-0.898c0.56-0.212,1.119-0.309,1.678-0.287c0.56,0.014,1.121,0.195,1.692,0.541
	C7.08,17.74,7.571,18.23,7.981,18.871"/>
<path fill="#C6C6C5" d="M7.981,3.059c0.453-0.65,0.966-1.142,1.542-1.481c0.58-0.337,1.151-0.519,1.716-0.532
	c0.562-0.021,1.114,0.075,1.669,0.287c0.551,0.21,1.029,0.508,1.442,0.898c0.412,0.392,0.747,0.863,1.001,1.418
	c0.251,0.555,0.381,1.131,0.381,1.734c0,0.532-0.157,1.086-0.475,1.656c-0.313,0.564-0.755,1.148-1.323,1.75
	c-0.567,0.601-1.162,1.2-1.782,1.797c-0.618,0.598-1.322,1.312-2.114,2.148c-0.786,0.838-1.472,1.654-2.057,2.453
	c-0.583-0.799-1.265-1.615-2.05-2.453c-0.781-0.837-1.484-1.551-2.104-2.148C3.207,9.989,2.613,9.39,2.044,8.789
	c-0.567-0.602-1.009-1.186-1.322-1.75c-0.316-0.57-0.475-1.124-0.475-1.656c0-0.604,0.132-1.18,0.395-1.734S1.249,2.622,1.67,2.23
	C2.095,1.84,2.583,1.542,3.142,1.332C3.702,1.12,4.261,1.023,4.82,1.045C5.379,1.059,5.941,1.24,6.512,1.586
	C7.08,1.928,7.571,2.418,7.981,3.059"/>
</svg>
