<?xml version="1.0" encoding="utf-8"?>
<!-- Generator: Adobe Illustrator 16.0.4, SVG Export Plug-In . SVG Version: 6.00 Build 0)  -->
<!DOCTYPE svg PUBLIC "-//W3C//DTD SVG 1.1//EN" "http://www.w3.org/Graphics/SVG/1.1/DTD/svg11.dtd">
<svg version="1.1" id="Layer_1" xmlns="http://www.w3.org/2000/svg" xmlns:xlink="http://www.w3.org/1999/xlink" x="0px" y="0px"
	 width="14.513px" height="13.26px" viewBox="0 0 14.513 13.26" enable-background="new 0 0 14.513 13.26" xml:space="preserve">
<path fill="#C6C6C6" d="M7.25,1.889c0.422-0.606,0.904-1.068,1.445-1.387c0.541-0.315,1.076-0.483,1.605-0.5
	c0.527-0.019,1.049,0.072,1.564,0.271c0.515,0.197,0.966,0.479,1.353,0.844c0.388,0.366,0.7,0.809,0.938,1.328
	s0.356,1.061,0.356,1.624c0,0.501-0.147,1.02-0.442,1.552c-0.295,0.533-0.709,1.081-1.241,1.644
	c-0.533,0.563-1.09,1.125-1.671,1.685s-1.241,1.229-1.981,2.013c-0.738,0.784-1.381,1.55-1.927,2.299
	c-0.547-0.749-1.187-1.515-1.922-2.299c-0.735-0.783-1.393-1.453-1.974-2.013S2.216,7.828,1.684,7.264
	c-0.532-0.562-0.946-1.11-1.241-1.644C0.147,5.088,0,4.57,0,4.069c0-0.563,0.123-1.104,0.369-1.624
	c0.247-0.52,0.568-0.962,0.964-1.328c0.396-0.365,0.856-0.646,1.38-0.844c0.524-0.198,1.048-0.289,1.572-0.271
	C4.809,0.019,5.337,0.189,5.87,0.51C6.402,0.832,6.862,1.292,7.25,1.889z"/>
</svg>
