<?xml version="1.0" encoding="utf-8"?>
<!-- Generator: Adobe Illustrator 16.0.0, SVG Export Plug-In . SVG Version: 6.00 Build 0)  -->
<!DOCTYPE svg PUBLIC "-//W3C//DTD SVG 1.1//EN" "http://www.w3.org/Graphics/SVG/1.1/DTD/svg11.dtd">
<svg version="1.1" id="Layer_1" xmlns="http://www.w3.org/2000/svg" xmlns:xlink="http://www.w3.org/1999/xlink" x="0px" y="0px"
	 width="32px" height="32px" viewBox="0 0 32 32" enable-background="new 0 0 32 32" xml:space="preserve">
<path fill="#65CCEF" d="M16.014,31.924c8.795,0,15.925-7.129,15.925-15.924c0-8.794-7.13-15.925-15.925-15.925
	C7.218,0.075,0.088,7.206,0.088,16C0.088,24.795,7.218,31.924,16.014,31.924"/>
<path fill="#FFFFFF" d="M24.004,11.828c-0.588,0.26-1.219,0.436-1.88,0.515c0.676-0.405,1.194-1.046,1.438-1.81
	c-0.633,0.375-1.333,0.647-2.079,0.793c-0.596-0.636-1.446-1.033-2.389-1.033c-1.807,0-3.271,1.466-3.271,3.272
	c0,0.257,0.028,0.506,0.084,0.745c-2.72-0.137-5.131-1.438-6.746-3.419c-0.281,0.485-0.443,1.047-0.443,1.646
	c0,1.134,0.578,2.137,1.456,2.724c-0.536-0.017-1.042-0.165-1.483-0.409v0.04c0,1.586,1.128,2.909,2.626,3.21
	c-0.275,0.076-0.563,0.115-0.863,0.115c-0.21,0-0.417-0.021-0.615-0.059c0.416,1.299,1.625,2.246,3.057,2.271
	c-1.12,0.879-2.531,1.402-4.064,1.402c-0.264,0-0.525-0.016-0.781-0.047c1.448,0.928,3.169,1.471,5.017,1.471
	c6.021,0,9.313-4.986,9.313-9.312c0-0.142-0.004-0.284-0.01-0.423C23.011,13.061,23.565,12.484,24.004,11.828"/>
</svg>
