<?xml version="1.0" encoding="utf-8"?>
<!-- Generator: Adobe Illustrator 16.0.0, SVG Export Plug-In . SVG Version: 6.00 Build 0)  -->
<!DOCTYPE svg PUBLIC "-//W3C//DTD SVG 1.1//EN" "http://www.w3.org/Graphics/SVG/1.1/DTD/svg11.dtd">
<svg version="1.1" id="Layer_1" xmlns="http://www.w3.org/2000/svg" xmlns:xlink="http://www.w3.org/1999/xlink" x="0px" y="0px"
	 width="360px" height="360px" viewBox="0 0 360 360" enable-background="new 0 0 360 360" xml:space="preserve">
<path d="M343.888,137.363c0.15,90.947-73.458,164.798-164.409,164.953c-90.954,0.146-164.806-73.462-164.956-164.411"/>
<path fill="#ED1F24" d="M237.036,137.536c0.055,31.389-25.349,56.874-56.734,56.923c-31.38,0.054-56.868-25.346-56.918-56.731"/>
<path fill="#231F20" d="M186.758,137.623c0.002,3.612-2.923,6.548-6.536,6.557c-3.619,0.006-6.556-2.92-6.56-6.533"/>
<path fill="none" stroke="#414042" stroke-miterlimit="10" d="M257.988,137.605c0,42.955-34.822,77.777-77.778,77.777
	c-42.956,0-77.778-34.822-77.778-77.777"/>
<path fill="none" d="M343.139,139.364c0.15,90.947-73.457,164.798-164.409,164.953c-90.954,0.146-164.806-73.461-164.956-164.411
	l52.598-0.086c0.246,61.696,50.332,111.636,112.085,111.636c61.877,0,112.043-50.139,112.09-112.005L343.139,139.364z"/>
<text transform="matrix(-0.0331 -0.9995 0.9995 -0.0331 14.0063 149.4297)"><tspan x="0" y="0" fill="#FFFFFF" font-family="'FranklinGothic-Medium'" font-size="34"> </tspan><tspan x="9.615" y="-2.731" fill="#FFFFFF" font-family="'FranklinGothic-Medium'" font-size="34" rotate="91.805"> </tspan><tspan x="9.361" y="5.355" fill="#FFFFFF" font-family="'FranklinGothic-Medium'" font-size="34" rotate="91.803"> </tspan><tspan x="9.093" y="13.854" fill="#FFFFFF" font-family="'FranklinGothic-Medium'" font-size="34" rotate="91.804"> </tspan><tspan x="8.825" y="22.352" fill="#FFFFFF" font-family="'FranklinGothic-Medium'" font-size="34" rotate="91.804"> </tspan><tspan x="8.558" y="30.846" fill="#FFFFFF" font-family="'FranklinGothic-Medium'" font-size="34" rotate="91.803"> </tspan><tspan x="8.291" y="39.34" fill="#FFFFFF" font-family="'FranklinGothic-Medium'" font-size="34" rotate="91.803"> </tspan><tspan x="8.023" y="47.834" fill="#FFFFFF" font-family="'FranklinGothic-Medium'" font-size="34" rotate="91.805"> </tspan><tspan x="5.878" y="52.534" fill="#FFFFFF" font-family="'FranklinGothic-Medium'" font-size="34" rotate="178.527"> </tspan><tspan x="-3.84" y="52.837" fill="#FFFFFF" font-family="'FranklinGothic-Medium'" font-size="34" rotate="173.578"> </tspan><tspan x="-13.526" y="53.982" fill="#FFFFFF" font-family="'FranklinGothic-Medium'" font-size="34" rotate="168.573"> </tspan><tspan x="-23.067" y="55.966" fill="#FFFFFF" font-family="'FranklinGothic-Medium'" font-size="34" rotate="163.556"> </tspan><tspan x="-33.32" y="58.741" fill="#FFFFFF" font-family="'FranklinGothic-Medium'" font-size="34" rotate="155.308">S</tspan><tspan x="-53.688" y="68.327" fill="#FFFFFF" font-family="'FranklinGothic-Medium'" font-size="34" rotate="143.217">O</tspan><tspan x="-73.434" y="83.613" fill="#FFFFFF" font-family="'FranklinGothic-Medium'" font-size="34" rotate="130.975">U</tspan><tspan x="-88.591" y="101.427" fill="#FFFFFF" font-family="'FranklinGothic-Medium'" font-size="34" rotate="118.586">N</tspan><tspan x="-100.433" y="123.938" fill="#FFFFFF" font-family="'FranklinGothic-Medium'" font-size="34" rotate="105.49">D</tspan><tspan x="-106.281" y="147.75" fill="#FFFFFF" font-family="'FranklinGothic-Medium'" font-size="34" rotate="96.453"> </tspan><tspan x="-107.827" y="158.409" fill="#FFFFFF" font-family="'FranklinGothic-Medium'" font-size="34" rotate="87.684">O</tspan><tspan x="-106.308" y="183.144" fill="#FFFFFF" font-family="'FranklinGothic-Medium'" font-size="34" rotate="76.183">F</tspan><tspan x="-101.33" y="201.64" fill="#FFFFFF" font-family="'FranklinGothic-Medium'" font-size="34" rotate="68.576"> </tspan><tspan x="-97.708" y="211.806" fill="#FFFFFF" font-family="'FranklinGothic-Medium'" font-size="34" rotate="59.657">R</tspan><tspan x="-84.957" y="232.239" fill="#FFFFFF" font-family="'FranklinGothic-Medium'" font-size="34" rotate="50.642">I</tspan><tspan x="-78.036" y="241.028" fill="#FFFFFF" font-family="'FranklinGothic-Medium'" font-size="34" rotate="42.35">S</tspan><tspan x="-61.413" y="255.745" fill="#FFFFFF" font-family="'FranklinGothic-Medium'" font-size="34" rotate="31.349">E</tspan></text>
</svg>
