<?xml version="1.0" encoding="utf-8"?>
<!-- Generator: Adobe Illustrator 16.0.0, SVG Export Plug-In . SVG Version: 6.00 Build 0)  -->
<!DOCTYPE svg PUBLIC "-//W3C//DTD SVG 1.1//EN" "http://www.w3.org/Graphics/SVG/1.1/DTD/svg11.dtd">
<svg version="1.1" id="Layer_1" xmlns="http://www.w3.org/2000/svg" xmlns:xlink="http://www.w3.org/1999/xlink" x="0px" y="0px"
	 width="32px" height="32px" viewBox="0 0 32 32" enable-background="new 0 0 32 32" xml:space="preserve">
<g>
	<path fill="#434648" d="M16.02,32c8.849,0,16.019-7.151,16.019-15.972S24.868,0.057,16.02,0.057C7.173,0.057,0,7.208,0,16.028
		S7.173,32,16.02,32"/>
	<path fill="#FFFFFF" d="M13.13,23.657c-2.019,0-3.476-1.272-3.476-2.803c0-1.498,1.808-2.747,3.826-2.726
		c0.471,0.005,0.91,0.081,1.308,0.21c1.094,0.759,1.88,1.188,2.103,2.054c0.042,0.176,0.064,0.356,0.064,0.54
		C16.956,22.464,15.967,23.657,13.13,23.657 M13.661,14.687c-1.354-0.041-2.643-1.51-2.875-3.283
		c-0.234-1.774,0.675-3.131,2.029-3.091c1.354,0.041,2.642,1.463,2.875,3.236C15.922,13.322,15.014,14.728,13.661,14.687
		 M16.468,17.313c-0.475-0.334-1.383-1.15-1.383-1.629c0-0.563,0.161-0.839,1.009-1.5c0.87-0.678,1.485-1.63,1.485-2.737
		c0-1.319-0.589-2.604-1.695-3.028h1.667l1.176-0.848H13.47c-2.356,0-4.575,1.781-4.575,3.842c0,2.107,1.607,3.809,4.004,3.809
		c0.167,0,0.329-0.003,0.487-0.015c-0.155,0.296-0.268,0.632-0.268,0.979c0,0.586,0.317,1.061,0.716,1.449
		c-0.302,0-0.594,0.009-0.911,0.009c-2.92,0-5.167,1.853-5.167,3.776c0,1.894,2.463,3.077,5.382,3.077
		c3.328,0,5.167-1.883,5.167-3.776C18.307,19.201,17.858,18.291,16.468,17.313 M24.118,14.841H22.07v-2.04h-1.646v2.04h-2.047v1.643
		h2.047v2.041h1.646v-2.041h2.048V14.841z"/>
</g>
</svg>
