<?xml version="1.0" encoding="utf-8"?>
<!-- Generator: Adobe Illustrator 16.0.0, SVG Export Plug-In . SVG Version: 6.00 Build 0)  -->
<!DOCTYPE svg PUBLIC "-//W3C//DTD SVG 1.1//EN" "http://www.w3.org/Graphics/SVG/1.1/DTD/svg11.dtd">
<svg version="1.1" id="Layer_1" xmlns="http://www.w3.org/2000/svg" xmlns:xlink="http://www.w3.org/1999/xlink" x="0px" y="0px"
	 width="64px" height="64px" viewBox="0 0 64 64" enable-background="new 0 0 64 64" xml:space="preserve">
<g>
	<path fill="#434648" d="M32.028,61.712c16.943,0,30.673-13.732,30.673-30.675c0-16.939-13.73-30.672-30.673-30.672
		c-16.94,0-30.675,13.733-30.675,30.672C1.353,47.979,15.088,61.712,32.028,61.712"/>
	<path fill="#FFFFFF" d="M26.953,44.777c-3.647,0-6.28-2.307-6.28-5.082c0-2.716,3.267-4.979,6.914-4.938
		c0.85,0.01,1.644,0.146,2.363,0.377c1.979,1.377,3.397,2.156,3.798,3.724c0.076,0.32,0.117,0.645,0.117,0.979
		C33.865,42.612,32.08,44.777,26.953,44.777 M27.911,28.518c-2.446-0.072-4.773-2.739-5.195-5.951
		c-0.423-3.215,1.219-5.674,3.665-5.602c2.447,0.074,4.775,2.652,5.196,5.866C32,26.045,30.359,28.592,27.911,28.518 M32.985,33.278
		c-0.859-0.61-2.498-2.086-2.498-2.955c0-1.021,0.29-1.521,1.822-2.718c1.57-1.229,2.685-2.954,2.685-4.961
		c0-2.391-1.066-4.719-3.063-5.488h3.011l2.127-1.536h-9.5c-4.258,0-8.267,3.227-8.267,6.963c0,3.817,2.904,6.902,7.237,6.902
		c0.301,0,0.592-0.006,0.88-0.027c-0.281,0.537-0.484,1.146-0.484,1.772c0,1.063,0.572,1.923,1.294,2.628
		c-0.546,0-1.073,0.014-1.646,0.014c-5.276,0-9.336,3.36-9.336,6.845c0,3.432,4.452,5.577,9.725,5.577
		c6.013,0,9.335-3.411,9.335-6.844C36.307,36.699,35.498,35.051,32.985,33.278 M46.809,28.798h-3.699v-3.699h-2.977v3.699h-3.699
		v2.976h3.699v3.699h2.977v-3.699h3.699V28.798z"/>
</g>
</svg>
