<?xml version="1.0" encoding="utf-8"?>
<!-- Generator: Adobe Illustrator 16.0.0, SVG Export Plug-In . SVG Version: 6.00 Build 0)  -->
<!DOCTYPE svg PUBLIC "-//W3C//DTD SVG 1.1//EN" "http://www.w3.org/Graphics/SVG/1.1/DTD/svg11.dtd">
<svg version="1.1" id="Layer_1" xmlns="http://www.w3.org/2000/svg" xmlns:xlink="http://www.w3.org/1999/xlink" x="0px" y="0px"
	 width="16px" height="16px" viewBox="0 0 16 16" enable-background="new 0 0 16 16" xml:space="preserve">
<path fill="#C6C6C5" d="M7.981,2.97c0.453-0.649,0.966-1.141,1.542-1.481c0.58-0.336,1.151-0.518,1.716-0.533
	c0.562-0.021,1.114,0.076,1.669,0.287c0.551,0.21,1.029,0.509,1.442,0.898c0.412,0.392,0.747,0.864,1.001,1.419
	c0.251,0.554,0.381,1.13,0.381,1.733c0,0.533-0.157,1.086-0.475,1.657c-0.313,0.565-0.755,1.148-1.323,1.75
	c-0.567,0.6-1.162,1.2-1.782,1.796c-0.618,0.598-1.322,1.312-2.114,2.148c-0.786,0.838-1.472,1.654-2.057,2.453
	c-0.583-0.799-1.265-1.615-2.05-2.453c-0.781-0.837-1.484-1.551-2.104-2.148c-0.62-0.597-1.214-1.196-1.783-1.796
	C1.477,8.1,1.035,7.516,0.722,6.951C0.406,6.38,0.248,5.827,0.248,5.294c0-0.603,0.132-1.18,0.395-1.733
	C0.906,3.006,1.249,2.534,1.67,2.142c0.424-0.39,0.913-0.688,1.472-0.898c0.56-0.211,1.119-0.308,1.678-0.287
	c0.56,0.015,1.121,0.196,1.692,0.542C7.08,1.84,7.571,2.33,7.981,2.97"/>
</svg>
