<?xml version="1.0" encoding="utf-8"?>
<!-- Generator: Adobe Illustrator 16.0.0, SVG Export Plug-In . SVG Version: 6.00 Build 0)  -->
<!DOCTYPE svg PUBLIC "-//W3C//DTD SVG 1.1//EN" "http://www.w3.org/Graphics/SVG/1.1/DTD/svg11.dtd">
<svg version="1.1" id="Layer_1" xmlns="http://www.w3.org/2000/svg" xmlns:xlink="http://www.w3.org/1999/xlink" x="0px" y="0px"
	 width="64px" height="64px" viewBox="0 0 64 64" enable-background="new 0 0 64 64" xml:space="preserve">
<path fill="#65CCEF" d="M32.002,61.713c16.941,0,30.673-13.733,30.673-30.674S48.943,0.363,32.002,0.363
	c-16.942,0-30.676,13.734-30.676,30.675S15.06,61.713,32.002,61.713"/>
<path fill="#FFFFFF" d="M47.39,23.002c-1.13,0.501-2.345,0.84-3.621,0.992c1.304-0.78,2.304-2.015,2.772-3.486
	c-1.219,0.722-2.564,1.246-4.005,1.528c-1.145-1.225-2.786-1.99-4.601-1.99c-3.48,0-6.301,2.823-6.301,6.304
	c0,0.495,0.054,0.974,0.162,1.435c-5.239-0.263-9.882-2.771-12.994-6.587c-0.543,0.934-0.853,2.016-0.853,3.172
	c0,2.186,1.113,4.115,2.804,5.247c-1.033-0.032-2.006-0.317-2.856-0.787v0.077c0,3.056,2.173,5.603,5.059,6.181
	c-0.529,0.147-1.086,0.223-1.662,0.223c-0.407,0-0.803-0.038-1.186-0.112c0.801,2.503,3.129,4.326,5.888,4.375
	c-2.158,1.692-4.876,2.699-7.829,2.699c-0.509,0-1.011-0.028-1.504-0.087c2.79,1.788,6.104,2.831,9.663,2.831
	c11.598,0,17.936-9.604,17.936-17.936c0-0.274-0.004-0.546-0.019-0.815C45.478,25.376,46.548,24.266,47.39,23.002"/>
</svg>
